<mxfile host="Electron" agent="Mozilla/5.0 (Macintosh; Intel Mac OS X 10_15_7) AppleWebKit/537.36 (KHTML, like Gecko) draw.io/26.0.9 Chrome/128.0.6613.186 Electron/32.2.5 Safari/537.36" version="26.0.9">
  <diagram name="Page-1" id="0JvMV1zFkQtMy5k-5A5A">
    <mxGraphModel dx="909" dy="581" grid="1" gridSize="10" guides="1" tooltips="1" connect="1" arrows="1" fold="1" page="1" pageScale="1" pageWidth="850" pageHeight="1100" math="0" shadow="0">
      <root>
        <mxCell id="0" />
        <mxCell id="1" parent="0" />
        <mxCell id="S1qn8FWI2ILO09buiIaC-1" value="&lt;p style=&quot;margin:0px;margin-top:6px;text-align:center;&quot;&gt;&lt;b&gt;Scorpio&lt;/b&gt;&lt;/p&gt;&lt;p style=&quot;margin:0px;margin-left:8px;&quot;&gt;&lt;br&gt;&lt;/p&gt;" style="align=left;overflow=fill;html=1;dropTarget=0;whiteSpace=wrap;fillColor=#f5f5f5;fontColor=#333333;strokeColor=#666666;" vertex="1" parent="1">
          <mxGeometry x="160" y="200" width="300" height="330" as="geometry" />
        </mxCell>
        <mxCell id="S1qn8FWI2ILO09buiIaC-2" value="" style="shape=component;jettyWidth=8;jettyHeight=4;" vertex="1" parent="S1qn8FWI2ILO09buiIaC-1">
          <mxGeometry x="1" width="20" height="20" relative="1" as="geometry">
            <mxPoint x="-24" y="4" as="offset" />
          </mxGeometry>
        </mxCell>
        <mxCell id="S1qn8FWI2ILO09buiIaC-3" value="&lt;span style=&quot;font-size: 14px;&quot;&gt;&lt;b&gt;Extension Core&lt;/b&gt;&lt;/span&gt;" style="html=1;dropTarget=0;whiteSpace=wrap;" vertex="1" parent="1">
          <mxGeometry x="220" y="240" width="180" height="90" as="geometry" />
        </mxCell>
        <mxCell id="S1qn8FWI2ILO09buiIaC-4" value="" style="shape=module;jettyWidth=8;jettyHeight=4;" vertex="1" parent="S1qn8FWI2ILO09buiIaC-3">
          <mxGeometry x="1" width="20" height="20" relative="1" as="geometry">
            <mxPoint x="-27" y="7" as="offset" />
          </mxGeometry>
        </mxCell>
        <mxCell id="S1qn8FWI2ILO09buiIaC-5" value="&lt;b&gt;&lt;font style=&quot;font-size: 14px;&quot;&gt;Artemis&lt;/font&gt;&lt;/b&gt;" style="html=1;dropTarget=0;whiteSpace=wrap;" vertex="1" parent="1">
          <mxGeometry x="660" y="240" width="180" height="90" as="geometry" />
        </mxCell>
        <mxCell id="S1qn8FWI2ILO09buiIaC-6" value="" style="shape=module;jettyWidth=8;jettyHeight=4;" vertex="1" parent="S1qn8FWI2ILO09buiIaC-5">
          <mxGeometry x="1" width="20" height="20" relative="1" as="geometry">
            <mxPoint x="-27" y="7" as="offset" />
          </mxGeometry>
        </mxCell>
        <mxCell id="S1qn8FWI2ILO09buiIaC-7" value="" style="rounded=0;orthogonalLoop=1;jettySize=auto;html=1;endArrow=halfCircle;endFill=0;endSize=6;strokeWidth=1;sketch=0;edgeStyle=orthogonalEdgeStyle;" edge="1" parent="1">
          <mxGeometry relative="1" as="geometry">
            <mxPoint x="400" y="264" as="sourcePoint" />
            <mxPoint x="560" y="264" as="targetPoint" />
            <Array as="points" />
          </mxGeometry>
        </mxCell>
        <mxCell id="S1qn8FWI2ILO09buiIaC-8" value="" style="rounded=0;orthogonalLoop=1;jettySize=auto;html=1;endArrow=oval;endFill=0;sketch=0;sourcePerimeterSpacing=0;targetPerimeterSpacing=0;endSize=10;edgeStyle=orthogonalEdgeStyle;" edge="1" parent="1">
          <mxGeometry relative="1" as="geometry">
            <mxPoint x="660" y="264" as="sourcePoint" />
            <mxPoint x="560" y="264" as="targetPoint" />
            <Array as="points">
              <mxPoint x="630" y="264" />
              <mxPoint x="630" y="264" />
            </Array>
          </mxGeometry>
        </mxCell>
        <mxCell id="S1qn8FWI2ILO09buiIaC-9" value="&lt;font style=&quot;font-size: 12px;&quot;&gt;Authentication Service&lt;/font&gt;" style="edgeLabel;html=1;align=center;verticalAlign=middle;resizable=0;points=[];" vertex="1" connectable="0" parent="S1qn8FWI2ILO09buiIaC-8">
          <mxGeometry x="0.7704" relative="1" as="geometry">
            <mxPoint x="-9" y="-20" as="offset" />
          </mxGeometry>
        </mxCell>
        <mxCell id="S1qn8FWI2ILO09buiIaC-10" value="" style="ellipse;whiteSpace=wrap;html=1;align=center;aspect=fixed;fillColor=none;strokeColor=none;resizable=0;perimeter=centerPerimeter;rotatable=0;allowArrows=0;points=[];outlineConnect=1;" vertex="1" parent="1">
          <mxGeometry x="540" y="300" width="10" height="10" as="geometry" />
        </mxCell>
        <mxCell id="S1qn8FWI2ILO09buiIaC-11" value="&lt;b&gt;&lt;font style=&quot;font-size: 14px;&quot;&gt;Webview&lt;/font&gt;&lt;/b&gt;" style="html=1;dropTarget=0;whiteSpace=wrap;" vertex="1" parent="1">
          <mxGeometry x="220" y="420" width="180" height="90" as="geometry" />
        </mxCell>
        <mxCell id="S1qn8FWI2ILO09buiIaC-12" value="" style="shape=module;jettyWidth=8;jettyHeight=4;" vertex="1" parent="S1qn8FWI2ILO09buiIaC-11">
          <mxGeometry x="1" width="20" height="20" relative="1" as="geometry">
            <mxPoint x="-27" y="7" as="offset" />
          </mxGeometry>
        </mxCell>
        <mxCell id="S1qn8FWI2ILO09buiIaC-13" value="" style="rounded=0;orthogonalLoop=1;jettySize=auto;html=1;endArrow=halfCircle;endFill=0;endSize=6;strokeWidth=1;sketch=0;edgeStyle=orthogonalEdgeStyle;" edge="1" parent="1" source="S1qn8FWI2ILO09buiIaC-3" target="S1qn8FWI2ILO09buiIaC-16">
          <mxGeometry relative="1" as="geometry">
            <mxPoint x="290" y="375" as="sourcePoint" />
            <Array as="points">
              <mxPoint x="270" y="340" />
              <mxPoint x="270" y="340" />
            </Array>
          </mxGeometry>
        </mxCell>
        <mxCell id="S1qn8FWI2ILO09buiIaC-14" value="" style="rounded=0;orthogonalLoop=1;jettySize=auto;html=1;endArrow=oval;endFill=0;sketch=0;sourcePerimeterSpacing=0;targetPerimeterSpacing=0;endSize=10;edgeStyle=orthogonalEdgeStyle;" edge="1" parent="1" source="S1qn8FWI2ILO09buiIaC-11" target="S1qn8FWI2ILO09buiIaC-16">
          <mxGeometry relative="1" as="geometry">
            <mxPoint x="250" y="375" as="sourcePoint" />
            <Array as="points">
              <mxPoint x="270" y="410" />
              <mxPoint x="270" y="410" />
            </Array>
          </mxGeometry>
        </mxCell>
        <mxCell id="S1qn8FWI2ILO09buiIaC-15" value="&lt;span style=&quot;font-size: 12px;&quot;&gt;webview.&lt;/span&gt;&lt;div&gt;&lt;span style=&quot;font-size: 12px;&quot;&gt;postMessage()&lt;/span&gt;&lt;/div&gt;" style="edgeLabel;html=1;align=center;verticalAlign=middle;resizable=0;points=[];labelBackgroundColor=none;" vertex="1" connectable="0" parent="S1qn8FWI2ILO09buiIaC-14">
          <mxGeometry x="0.5659" y="-1" relative="1" as="geometry">
            <mxPoint x="-51" y="-5" as="offset" />
          </mxGeometry>
        </mxCell>
        <mxCell id="S1qn8FWI2ILO09buiIaC-16" value="" style="ellipse;whiteSpace=wrap;html=1;align=center;aspect=fixed;fillColor=none;strokeColor=none;resizable=0;perimeter=centerPerimeter;rotatable=0;allowArrows=0;points=[];outlineConnect=1;" vertex="1" parent="1">
          <mxGeometry x="265" y="370" width="10" height="10" as="geometry" />
        </mxCell>
        <mxCell id="S1qn8FWI2ILO09buiIaC-17" value="" style="rounded=0;orthogonalLoop=1;jettySize=auto;html=1;endArrow=halfCircle;endFill=0;endSize=6;strokeWidth=1;sketch=0;edgeStyle=orthogonalEdgeStyle;" edge="1" parent="1">
          <mxGeometry relative="1" as="geometry">
            <mxPoint x="350" y="420" as="sourcePoint" />
            <mxPoint x="350" y="375" as="targetPoint" />
          </mxGeometry>
        </mxCell>
        <mxCell id="S1qn8FWI2ILO09buiIaC-18" value="" style="rounded=0;orthogonalLoop=1;jettySize=auto;html=1;endArrow=oval;endFill=0;sketch=0;sourcePerimeterSpacing=0;targetPerimeterSpacing=0;endSize=10;edgeStyle=orthogonalEdgeStyle;" edge="1" parent="1">
          <mxGeometry relative="1" as="geometry">
            <mxPoint x="350" y="330" as="sourcePoint" />
            <mxPoint x="350" y="375" as="targetPoint" />
            <Array as="points">
              <mxPoint x="350" y="375" />
            </Array>
          </mxGeometry>
        </mxCell>
        <mxCell id="S1qn8FWI2ILO09buiIaC-19" value="&lt;span style=&quot;font-size: 12px;&quot;&gt;vscode.&lt;/span&gt;&lt;div&gt;&lt;span style=&quot;font-size: 12px;&quot;&gt;postMessage()&lt;/span&gt;&lt;/div&gt;" style="edgeLabel;html=1;align=center;verticalAlign=middle;resizable=0;points=[];labelBackgroundColor=none;" vertex="1" connectable="0" parent="S1qn8FWI2ILO09buiIaC-18">
          <mxGeometry x="0.5148" y="-2" relative="1" as="geometry">
            <mxPoint x="62" y="11" as="offset" />
          </mxGeometry>
        </mxCell>
        <mxCell id="S1qn8FWI2ILO09buiIaC-20" value="" style="ellipse;whiteSpace=wrap;html=1;align=center;aspect=fixed;fillColor=none;strokeColor=none;resizable=0;perimeter=centerPerimeter;rotatable=0;allowArrows=0;points=[];outlineConnect=1;" vertex="1" parent="1">
          <mxGeometry x="305" y="370" width="10" height="10" as="geometry" />
        </mxCell>
        <mxCell id="S1qn8FWI2ILO09buiIaC-21" value="&lt;b style=&quot;font-size: 14px;&quot;&gt;VSCode&lt;br&gt;Engine&lt;/b&gt;" style="html=1;dropTarget=0;whiteSpace=wrap;" vertex="1" parent="1">
          <mxGeometry x="270" y="30" width="180" height="90" as="geometry" />
        </mxCell>
        <mxCell id="S1qn8FWI2ILO09buiIaC-22" value="" style="shape=module;jettyWidth=8;jettyHeight=4;" vertex="1" parent="S1qn8FWI2ILO09buiIaC-21">
          <mxGeometry x="1" width="20" height="20" relative="1" as="geometry">
            <mxPoint x="-27" y="7" as="offset" />
          </mxGeometry>
        </mxCell>
        <mxCell id="S1qn8FWI2ILO09buiIaC-23" value="" style="rounded=0;orthogonalLoop=1;jettySize=auto;html=1;endArrow=halfCircle;endFill=0;endSize=6;strokeWidth=1;sketch=0;edgeStyle=orthogonalEdgeStyle;" edge="1" parent="1" source="S1qn8FWI2ILO09buiIaC-3" target="S1qn8FWI2ILO09buiIaC-26">
          <mxGeometry relative="1" as="geometry">
            <mxPoint x="330" y="205" as="sourcePoint" />
            <Array as="points">
              <mxPoint x="375" y="220" />
              <mxPoint x="375" y="220" />
            </Array>
          </mxGeometry>
        </mxCell>
        <mxCell id="S1qn8FWI2ILO09buiIaC-24" value="" style="rounded=0;orthogonalLoop=1;jettySize=auto;html=1;endArrow=oval;endFill=0;sketch=0;sourcePerimeterSpacing=0;targetPerimeterSpacing=0;endSize=10;edgeStyle=orthogonalEdgeStyle;" edge="1" parent="1" source="S1qn8FWI2ILO09buiIaC-21" target="S1qn8FWI2ILO09buiIaC-26">
          <mxGeometry relative="1" as="geometry">
            <mxPoint x="290" y="205" as="sourcePoint" />
            <Array as="points">
              <mxPoint x="375" y="130" />
              <mxPoint x="375" y="130" />
            </Array>
          </mxGeometry>
        </mxCell>
        <mxCell id="S1qn8FWI2ILO09buiIaC-25" value="&lt;font style=&quot;font-size: 12px;&quot;&gt;VSCode API&lt;/font&gt;" style="edgeLabel;html=1;align=center;verticalAlign=middle;resizable=0;points=[];" vertex="1" connectable="0" parent="S1qn8FWI2ILO09buiIaC-24">
          <mxGeometry x="0.6648" relative="1" as="geometry">
            <mxPoint x="50" y="3" as="offset" />
          </mxGeometry>
        </mxCell>
        <mxCell id="S1qn8FWI2ILO09buiIaC-26" value="" style="ellipse;whiteSpace=wrap;html=1;align=center;aspect=fixed;fillColor=none;strokeColor=none;resizable=0;perimeter=centerPerimeter;rotatable=0;allowArrows=0;points=[];outlineConnect=1;" vertex="1" parent="1">
          <mxGeometry x="370" y="150" width="10" height="10" as="geometry" />
        </mxCell>
        <mxCell id="S1qn8FWI2ILO09buiIaC-27" value="" style="rounded=0;orthogonalLoop=1;jettySize=auto;html=1;endArrow=halfCircle;endFill=0;endSize=6;strokeWidth=1;sketch=0;edgeStyle=orthogonalEdgeStyle;" edge="1" parent="1" source="S1qn8FWI2ILO09buiIaC-3">
          <mxGeometry relative="1" as="geometry">
            <mxPoint x="400" y="304.74" as="sourcePoint" />
            <mxPoint x="560" y="304.74" as="targetPoint" />
            <Array as="points">
              <mxPoint x="480" y="305" />
            </Array>
          </mxGeometry>
        </mxCell>
        <mxCell id="S1qn8FWI2ILO09buiIaC-28" value="" style="rounded=0;orthogonalLoop=1;jettySize=auto;html=1;endArrow=oval;endFill=0;sketch=0;sourcePerimeterSpacing=0;targetPerimeterSpacing=0;endSize=10;edgeStyle=orthogonalEdgeStyle;" edge="1" parent="1" source="S1qn8FWI2ILO09buiIaC-5">
          <mxGeometry relative="1" as="geometry">
            <mxPoint x="660" y="304.74" as="sourcePoint" />
            <mxPoint x="560" y="304.74" as="targetPoint" />
            <Array as="points">
              <mxPoint x="610" y="305" />
            </Array>
          </mxGeometry>
        </mxCell>
        <mxCell id="S1qn8FWI2ILO09buiIaC-29" value="&lt;font style=&quot;font-size: 12px;&quot;&gt;Exercise Service&lt;/font&gt;" style="edgeLabel;html=1;align=center;verticalAlign=middle;resizable=0;points=[];" vertex="1" connectable="0" parent="S1qn8FWI2ILO09buiIaC-28">
          <mxGeometry x="0.7704" relative="1" as="geometry">
            <mxPoint x="-9" y="-20" as="offset" />
          </mxGeometry>
        </mxCell>
      </root>
    </mxGraphModel>
  </diagram>
</mxfile>
